<?xml version="1.0" encoding="utf-8"?>
<!-- Generator: Adobe Illustrator 21.1.0, SVG Export Plug-In . SVG Version: 6.00 Build 0)  -->
<svg version="1.1" id="Icons" xmlns="http://www.w3.org/2000/svg" xmlns:xlink="http://www.w3.org/1999/xlink" x="0px" y="0px"
	 viewBox="0 0 5013.5 3702.7" style="enable-background:new 0 0 5013.5 3702.7;" xml:space="preserve">
<style type="text/css">
	.st0{fill:#0B80E0;}
</style>
<g id="Credit_Card">
	<g>
		<path class="st0" d="M3708.9,2938.1h437.3c60.4,0,109.3-48.9,109.3-109.3v-437.3c0-60.3-49-109.3-109.3-109.3h-437.3
			c-60.4,0-109.3,49-109.3,109.3v437.3C3599.6,2889.2,3648.5,2938.1,3708.9,2938.1z M866.7,2500.9h1967.7
			c60.4,0,109.3-48.9,109.3-109.3c0-60.3-49-109.3-109.3-109.3H866.7c-60.4,0-109.3,49-109.3,109.3
			C757.4,2452,806.3,2500.9,866.7,2500.9z M866.7,2938.1h1530.4c60.4,0,109.3-48.9,109.3-109.3c0-60.3-49-109.3-109.3-109.3H866.7
			c-60.4,0-109.3,49-109.3,109.3C757.4,2889.2,806.3,2938.1,866.7,2938.1z M4692.7,95.9H320.1c-120.7,0-218.6,97.9-218.6,218.6
			v3060.8c0,120.7,97.9,218.6,218.6,218.6h4372.6c120.7,0,218.6-97.9,218.6-218.6V314.6C4911.4,193.8,4813.5,95.9,4692.7,95.9z
			 M4692.7,3375.4H320.1v-1749h4372.6V3375.4z M4692.7,751.8H320.1V314.6h4372.6V751.8z"/>
	</g>
</g>
</svg>
