<svg id="Icons" xmlns="http://www.w3.org/2000/svg" viewBox="0 0 40 40"><defs><style>.cls-1{fill:#2a82e6;}</style></defs><title>clock</title><path class="cls-1" d="M4578.69,365.26a17.5,17.5,0,1,1-17.5,17.5,17.5,17.5,0,0,1,17.5-17.5m0-2.5a20,20,0,1,0,20,20,20,20,0,0,0-20-20Z" transform="translate(-4558.69 -362.76)"/><path class="cls-1" d="M4578.69,380.72a2,2,0,1,1-2,2,2,2,0,0,1,2-2m0-1.25a3.28,3.28,0,1,0,3.28,3.28,3.29,3.29,0,0,0-3.28-3.28Z" transform="translate(-4558.69 -362.76)"/><path class="cls-1" d="M4579.89,380.66a.62.62,0,0,1-.62-.62V373.7c0-.35-.16-.76-.62-.76s-.62.41-.62.76V380a.62.62,0,1,1-1.25,0V373.7a1.88,1.88,0,1,1,3.75,0V380A.62.62,0,0,1,4579.89,380.66Z" transform="translate(-4558.69 -362.76)"/><path class="cls-1" d="M4597.39,383.16h-2.5a.62.62,0,1,1,0-1.25h2.5a.62.62,0,0,1,0,1.25Z" transform="translate(-4558.69 -362.76)"/><path class="cls-1" d="M4562.39,383.16h-2.5a.62.62,0,0,1,0-1.25h2.5a.62.62,0,0,1,0,1.25Z" transform="translate(-4558.69 -362.76)"/><path class="cls-1" d="M4578.64,401.91a.62.62,0,0,1-.62-.62v-2.5a.62.62,0,1,1,1.25,0v2.5A.62.62,0,0,1,4578.64,401.91Z" transform="translate(-4558.69 -362.76)"/><path class="cls-1" d="M4578.64,366.91a.62.62,0,0,1-.62-.62v-2.5a.62.62,0,0,1,1.25,0v2.5A.62.62,0,0,1,4578.64,366.91Z" transform="translate(-4558.69 -362.76)"/><path class="cls-1" d="M4591.94,396.64a.62.62,0,0,1-.44-.18l-1.77-1.77a.62.62,0,1,1,.88-.88l1.77,1.77a.62.62,0,0,1-.44,1.07Z" transform="translate(-4558.69 -362.76)"/><path class="cls-1" d="M4567.2,371.89a.62.62,0,0,1-.44-.18l-1.77-1.77a.62.62,0,0,1,.88-.88l1.77,1.77a.62.62,0,0,1-.44,1.07Z" transform="translate(-4558.69 -362.76)"/><path class="cls-1" d="M4565.43,396.64a.62.62,0,0,1-.44-1.07l1.77-1.77a.62.62,0,1,1,.88.88l-1.77,1.77A.62.62,0,0,1,4565.43,396.64Z" transform="translate(-4558.69 -362.76)"/><path class="cls-1" d="M4590.18,371.89a.62.62,0,0,1-.44-1.07l1.77-1.77a.62.62,0,1,1,.88.88l-1.77,1.77A.62.62,0,0,1,4590.18,371.89Z" transform="translate(-4558.69 -362.76)"/><path class="cls-1" d="M4583.37,388.07a.62.62,0,0,1-.44-.18l-2.81-2.81a.62.62,0,0,1,.88-.88l2.81,2.81a.62.62,0,0,1-.44,1.07Z" transform="translate(-4558.69 -362.76)"/><path class="cls-1" d="M4569.55,392.36a.62.62,0,0,1-.44-1.07l7.11-7.11a.62.62,0,1,1,.88.88l-7.11,7.11A.62.62,0,0,1,4569.55,392.36Z" transform="translate(-4558.69 -362.76)"/><path class="cls-1" d="M4597.24,369.05a1.25,1.25,0,0,1-.88-.37l-3.75-3.75a1.25,1.25,0,1,1,1.77-1.77l3.75,3.75a1.25,1.25,0,0,1-.88,2.13Z" transform="translate(-4558.69 -362.76)"/><path class="cls-1" d="M4559.94,369a1.25,1.25,0,0,1-.88-2.13l3.75-3.75a1.25,1.25,0,1,1,1.77,1.77l-3.75,3.75A1.25,1.25,0,0,1,4559.94,369Z" transform="translate(-4558.69 -362.76)"/><path class="cls-1" d="M4592,370.44a1.25,1.25,0,0,1-.88-2.13l3.34-3.34a1.25,1.25,0,1,1,1.77,1.77l-3.34,3.34A1.25,1.25,0,0,1,4592,370.44Z" transform="translate(-4558.69 -362.76)"/><path class="cls-1" d="M4565.43,370.44a1.25,1.25,0,0,1-.88-.37l-3.48-3.48a1.25,1.25,0,1,1,1.77-1.77l3.48,3.48a1.25,1.25,0,0,1-.88,2.13Z" transform="translate(-4558.69 -362.76)"/></svg>