<?xml version="1.0" encoding="utf-8"?>
<!-- Generator: Adobe Illustrator 18.0.0, SVG Export Plug-In . SVG Version: 6.00 Build 0)  -->
<!DOCTYPE svg PUBLIC "-//W3C//DTD SVG 1.1//EN" "http://www.w3.org/Graphics/SVG/1.1/DTD/svg11.dtd">
<svg version="1.1" id="Общая" xmlns="http://www.w3.org/2000/svg" xmlns:xlink="http://www.w3.org/1999/xlink" x="0px" y="0px"
	 viewBox="0 0 86 86" enable-background="new 0 0 86 86" xml:space="preserve">
<circle id="Placement_holder" display="none" fill="none" stroke="#1368B8" stroke-width="0.8" stroke-linecap="round" stroke-linejoin="round" stroke-miterlimit="10" cx="43" cy="43" r="43"/>
<circle id="Placement_holder_1_" fill="none" stroke="#1368B8" stroke-width="0.8" stroke-linecap="round" stroke-linejoin="round" stroke-miterlimit="10" cx="43" cy="43" r="42.6"/>
<path fill="none" stroke="#14539F" stroke-linecap="round" stroke-linejoin="round" stroke-miterlimit="10" d="M28.5,33.4v16
	c0,0,2.1,12.3,10.5,13.8c2.3,0.4,3.5,2.3,5.9,2.3s4.8-2.2,6.1-2.3s9-3.8,9.7-13.5c0.7-9.7,0-18.3,0-18.3s-2.2-8-6.2-9
	c-0.3,5.2-5.2,6.8-14.4,6.9c-9.3,0.1-13.8,5.7-13.8,5.7 M63.8,37.5c0,0,3.2,5.2-2.6,10.6 M28.5,46.7c-4.8-3.1-2.8-9.8-2.8-9.8
	 M41.7,37.9c-2.5-1.8-8.8,0-8.8,0 M56,38.9c-1.8-2.8-7.2-1-7.2-1 M41.7,49.3c0,0,3.6,2.2,5.5,0 M39.2,53.9c0,0,4.4,5.1,10.5,0.7
	 M38.5,42.8c0-0.6-0.5-1.1-1.1-1.1s-1.1,0.5-1.1,1.1s0.5,1.1,1.1,1.1S38.5,43.4,38.5,42.8z M53.1,42.8c0-0.6-0.5-1.1-1.1-1.1
	c-0.6,0-1.1,0.5-1.1,1.1s0.5,1.1,1.1,1.1C52.6,43.9,53.1,43.4,53.1,42.8z M28.1,40.2c0,0-6.3-7-2.9-20.3S47.3,8,47.3,8
	s7.1-0.4,9.1,7.5c0,0,8-0.9,9.1,7.8s-4,19.8-4,19.8 M74.5,69.8c-0.8-0.5-1.7-1-2.6-1.5c-2.8-1.4-5.2-2.5-8.8-3.1
	c-1.5-1.3-4.4-2.7-6.3-3.9c0,0-1.6,5-3.8,6.1s-8,3.4-8,3.4s-5.7-1.5-7.8-3.4c-2.1-1.9-3.9-6.1-3.9-6.1s-4.1,2.7-6.1,4.2
	c-2.4,0.5-5.3,1.1-8.2,2.1c-2.4,0.8-4.7,1.7-6.9,2.9 M66,78c1.9-3,3.8-6.2,5.7-9.7 M19.2,67.5c0,0,2.5,5.8,6.3,13 M53.1,83.7
	c1.6-2.6,3.2-5,4.2-6.6c3.5-5.6,5.8-11.8,5.8-11.8 M26.6,65.6l10.2,18.8"/>
</svg>
