<svg id="Icons" xmlns="http://www.w3.org/2000/svg" viewBox="0 0 24 24"><defs><style>.cls-1{fill:none;}.cls-2{fill:#757575;}</style></defs><title>dialog</title><rect class="cls-1" width="24" height="24"/><rect class="cls-1" width="24" height="24"/><path class="cls-2" d="M5894.71,325.45a1,1,0,0,1-1-1v-2h-1v-2h2a1,1,0,0,1,1,1v1l2.4-1.8a1,1,0,0,1,.6-.2h3v-7h-10v3h-2v-3a2,2,0,0,1,2-2h10a2,2,0,0,1,2,2v7a2,2,0,0,1-2,2H5899l-3.73,2.8A1,1,0,0,1,5894.71,325.45Z" transform="translate(-5879.71 -309.45)"/><circle class="cls-2" cx="8" cy="12" r="4"/><path class="cls-2" d="M5887.71,326.45c-4.71,0-8,2.47-8,6v1h16v-1C5895.71,328.92,5892.42,326.45,5887.71,326.45Z" transform="translate(-5879.71 -309.45)"/></svg>