<svg version="1.1" id="Icons" xmlns="http://www.w3.org/2000/svg" xmlns:xlink="http://www.w3.org/1999/xlink" x="0px" y="0px" viewBox="0 0 50.1 50.1" style="enable-background:new 0 0 50.1 50.1;" xml:space="preserve"><style type="text/css"> .st3{fill:none;stroke:#F34A38;stroke-miterlimit:10;} .st4{fill:#F34A38;} </style><title>tw</title><circle class="st3" cx="25" cy="25" r="24.5"></circle><g><path class="st4" d="M19.7,27.4h5.6c-1,2.8-3.7,4.8-6.8,4.8c-3.8,0-6.9-3.1-7.1-6.9c-0.2-4.1,3.1-7.4,7.1-7.4 c1.8,0,3.5,0.7,4.8,1.9c0.3,0.3,0.8,0.3,1.1,0l2.1-1.9c0.3-0.3,0.3-0.8,0-1.1c-2-1.9-4.7-3.1-7.7-3.1C12.4,13.4,7.1,18.6,7,25 c0,6.4,5.1,11.6,11.5,11.6c6.1,0,11.2-4.8,11.5-10.9c0-0.1,0-2.6,0-2.6H19.7c-0.4,0-0.8,0.3-0.8,0.8v2.8 C18.9,27.1,19.2,27.4,19.7,27.4z"></path><path class="st4" d="M39.6,23.3v-2.8c0-0.4-0.3-0.7-0.7-0.7h-2.3c-0.4,0-0.7,0.3-0.7,0.7v2.8h-2.8c-0.4,0-0.7,0.3-0.7,0.7v2.3 c0,0.4,0.3,0.7,0.7,0.7h2.8v2.8c0,0.4,0.3,0.7,0.7,0.7h2.3c0.4,0,0.7-0.3,0.7-0.7V27h2.8c0.4,0,0.7-0.3,0.7-0.7V24 c0-0.4-0.3-0.7-0.7-0.7L39.6,23.3L39.6,23.3z"></path></g></svg>