<svg id="Icons" xmlns="http://www.w3.org/2000/svg" viewBox="0 0 40 33.09"><defs><style>.cls-1{fill:#2a82e6;}</style></defs><title>msg</title><path class="cls-1" d="M4500.17,296.29a10.37,10.37,0,0,1,10.35,10.24v.5a10.07,10.07,0,0,1-10.35,9.89h-5.92l-9.55,7.31,1.12-7.08A10.23,10.23,0,0,1,4475.52,307v-.5a10.44,10.44,0,0,1,10.43-10.24h13.95m.28-2.5h-14.22A13,13,0,0,0,4473,306.52v.5a12.82,12.82,0,0,0,9.9,12.36l-.73,4.57a2.52,2.52,0,0,0,1.19,2.56,2.55,2.55,0,0,0,1.32.37,2.71,2.71,0,0,0,1.51-.65l8.89-6.81h5.09A12.58,12.58,0,0,0,4513,307v-.5a12.88,12.88,0,0,0-12.85-12.74Z" transform="translate(-4473.02 -293.79)"/><path class="cls-1" d="M4482.93,299.85a.63.63,0,0,1-.1-1.24,7.83,7.83,0,0,1,1.31-.11.62.62,0,1,1,0,1.25,6.56,6.56,0,0,0-1.1.09Z" transform="translate(-4473.02 -293.79)"/><path class="cls-1" d="M4477.39,306.91a.62.62,0,0,1-.62-.62v-.1a7.93,7.93,0,0,1,4.55-7.18.63.63,0,0,1,.51,1.14,6.66,6.66,0,0,0-3.81,6v.1A.62.62,0,0,1,4477.39,306.91Z" transform="translate(-4473.02 -293.79)"/><path class="cls-1" d="M4485.48,310.36a2.81,2.81,0,1,1,2.81-2.81A2.82,2.82,0,0,1,4485.48,310.36Zm0-4.37a1.56,1.56,0,1,0,1.56,1.56A1.56,1.56,0,0,0,4485.48,306Z" transform="translate(-4473.02 -293.79)"/><path class="cls-1" d="M4493,310.36a2.81,2.81,0,1,1,2.81-2.81A2.82,2.82,0,0,1,4493,310.36Zm0-4.37a1.56,1.56,0,1,0,1.56,1.56A1.56,1.56,0,0,0,4493,306Z" transform="translate(-4473.02 -293.79)"/><path class="cls-1" d="M4500.48,310.36a2.81,2.81,0,1,1,2.81-2.81A2.82,2.82,0,0,1,4500.48,310.36Zm0-4.37a1.56,1.56,0,1,0,1.56,1.56A1.56,1.56,0,0,0,4500.48,306Z" transform="translate(-4473.02 -293.79)"/></svg>