<svg version="1.1" id="Icons" xmlns="http://www.w3.org/2000/svg" xmlns:xlink="http://www.w3.org/1999/xlink" x="0px" y="0px" viewBox="0 0 50.1 50.1" style="enable-background:new 0 0 50.1 50.1;" xml:space="preserve"><style type="text/css"> .st0{fill:none;stroke:#F58220;stroke-miterlimit:10;} .st1{fill-rule:evenodd;clip-rule:evenodd;fill:#F58220;} </style><title>tw</title><circle class="st0" cx="25" cy="25" r="24.5"></circle><g><g><path class="st1" d="M23.4,31.8c-2.6-0.3-4.9-0.9-6.9-2.4c-0.2-0.2-0.5-0.4-0.7-0.6c-0.9-0.8-1-1.8-0.3-2.8 c0.6-0.8,1.6-1.1,2.6-0.6c0.2,0.1,0.4,0.2,0.6,0.3c3.7,2.5,8.8,2.6,12.5,0.1c0.4-0.3,0.8-0.5,1.2-0.6c0.9-0.2,1.7,0.1,2.2,0.9 c0.5,0.9,0.5,1.7-0.1,2.4c-1,1-2.3,1.8-3.7,2.3c-1.3,0.5-2.7,0.8-4.1,0.9c0.2,0.2,0.3,0.3,0.4,0.5c1.9,1.9,3.8,3.8,5.8,5.7 c0.7,0.7,0.8,1.5,0.4,2.2c-0.4,0.8-1.3,1.4-2.1,1.3c-0.5,0-1-0.3-1.3-0.7c-1.4-1.4-2.9-2.9-4.3-4.3c-0.4-0.4-0.6-0.3-1,0 c-1.5,1.5-2.9,2.9-4.4,4.4c-0.7,0.7-1.5,0.8-2.2,0.4c-0.8-0.4-1.3-1.2-1.3-2.1c0-0.6,0.3-1,0.7-1.4c1.9-1.9,3.8-3.8,5.7-5.6 C23.1,32.1,23.2,32,23.4,31.8L23.4,31.8z M23.4,31.8"></path><path class="st1" d="M25,25.2c-4.6,0-8.4-3.8-8.4-8.4c0-4.6,3.8-8.3,8.5-8.3c4.7,0,8.4,3.8,8.4,8.5C33.4,21.6,29.6,25.3,25,25.2 L25,25.2z M29.2,16.9c0-2.3-1.8-4.1-4.1-4.1c-2.3,0-4.1,1.8-4.1,4.1c0,2.3,1.9,4.1,4.1,4C27.4,21,29.2,19.2,29.2,16.9L29.2,16.9z M29.2,16.9"></path></g></g></svg>