<?xml version="1.0" encoding="utf-8"?>
<!-- Generator: Adobe Illustrator 21.0.2, SVG Export Plug-In . SVG Version: 6.00 Build 0)  -->
<svg version="1.1"
	 id="svg2" xmlns:cc="http://creativecommons.org/ns#" xmlns:dc="http://purl.org/dc/elements/1.1/" xmlns:rdf="http://www.w3.org/1999/02/22-rdf-syntax-ns#" xmlns:svg="http://www.w3.org/2000/svg"
	 xmlns="http://www.w3.org/2000/svg" xmlns:xlink="http://www.w3.org/1999/xlink" x="0px" y="0px" viewBox="0 0 526.8 140.4"
	 style="enable-background:new 0 0 526.8 140.4;" xml:space="preserve">
<g id="g12" transform="scale(0.1,0.1)">
	<path id="path14" fill="#0a80df" d="M632.1,0.1H222.4c-28,0-51.9,20.4-56.3,48.1L0.4,1098.8c-3.3,20.7,12.8,39.4,33.8,39.4h195.6
		c28,0,51.9-20.4,56.3-48.1l44.7-283.4c4.3-27.7,28.2-48.1,56.2-48.1h129.7c269.9,0,425.7-130.6,466.3-389.4
		c18.3-113.2,0.8-202.2-52.2-264.5C872.5,36.3,769.3,0.1,632.1,0.1L632.1,0.1z M679.4,383.8c-22.4,147-134.7,147-243.4,147h-61.8
		l43.4-274.6c2.6-16.6,17-28.8,33.7-28.8h28.3c74,0,143.8,0,179.9,42.2C681,294.8,687.6,332.2,679.4,383.8"/>
	<path id="path16" fill="#0a80df" d="M1856.9,379.1h-196.2c-16.7,0-31.2,12.2-33.7,28.8l-8.7,54.9l-13.7-19.9c-42.5-61.6-137.2-82.3-231.7-82.3
		c-216.8,0-402,164.2-438.1,394.6c-18.8,114.9,7.9,224.8,73.1,301.4c59.8,70.5,145.3,99.8,247.1,99.8
		c174.7,0,271.6-112.3,271.6-112.3l-8.8,54.5c-3.3,20.8,12.8,39.5,33.7,39.5h176.7c28.1,0,51.8-20.4,56.3-48.1l106-671.5
		C1893.8,397.8,1877.9,379.1,1856.9,379.1z M1583.4,761c-18.9,112.1-107.9,187.3-221.4,187.3c-57,0-102.5-18.3-131.8-52.9
		c-29-34.4-40-83.3-30.8-137.9c17.7-111.1,108.1-188.8,219.9-188.8c55.7,0,101,18.5,130.9,53.4C1580.1,657.4,1592,706.7,1583.4,761"
		/>
	<path id="path18" fill="#0a80df" d="M2901.8,379.1h-197.2c-18.8,0-36.5,9.3-47.1,25l-271.9,400.6l-115.3-384.9c-7.3-24.1-29.5-40.6-54.6-40.6
		h-193.7c-23.6,0-39.9,23-32.4,45.2l217.2,637.3l-204.2,288.2c-16.1,22.7,0.1,53.9,27.9,53.9h196.9c18.7,0,36.2-9.1,46.8-24.4
		l655.8-946.6C2945.6,410.1,2929.5,379.1,2901.8,379.1"/>
	<path id="path20" fill="#0a80df" d="M3554.6,0.1h-409.8c-28,0-51.8,20.4-56.2,48.1l-165.7,1050.6c-3.3,20.7,12.8,39.4,33.7,39.4h210.3
		c19.5,0,36.3-14.3,39.3-33.7l47-297.8c4.3-27.7,28.2-48.1,56.2-48.1h129.6c269.9,0,425.7-130.6,466.4-389.4
		c18.4-113.2,0.7-202.2-52.3-264.5C3795,36.3,3691.8,0.1,3554.6,0.1L3554.6,0.1z M3601.9,383.8c-22.4,147-134.7,147-243.4,147h-61.8
		l43.4-274.6c2.6-16.6,16.8-28.8,33.7-28.8h28.3c73.9,0,143.8,0,179.8,42.2C3603.6,294.8,3610.1,332.2,3601.9,383.8"/>
	<path id="path22" fill="#0a80df" d="M4779.3,379.1h-196.1c-16.8,0-31.2,12.2-33.7,28.8l-8.7,54.9l-13.8-19.9c-42.5-61.6-137.1-82.3-231.7-82.3
		c-216.8,0-401.9,164.2-438,394.6c-18.7,114.9,7.9,224.8,73,301.4c59.9,70.5,145.3,99.8,247.1,99.8c174.7,0,271.6-112.3,271.6-112.3
		l-8.8,54.5c-3.3,20.8,12.8,39.5,33.8,39.5h176.7c28,0,51.8-20.4,56.2-48.1l106.1-671.5C4816.4,397.8,4800.3,379.1,4779.3,379.1
		L4779.3,379.1z M4505.8,761c-18.8,112.1-107.9,187.3-221.4,187.3c-56.9,0-102.5-18.3-131.8-52.9c-29-34.4-39.9-83.3-30.8-137.9
		c17.8-111.1,108.1-188.8,219.9-188.8c55.7,0,101,18.5,130.8,53.4C4502.6,657.4,4514.5,706.7,4505.8,761"/>
	<path id="path24" fill="#0a80df" d="M5010.6,28.9l-168.2,1069.9c-3.3,20.7,12.8,39.4,33.7,39.4h169.1c28.1,0,51.9-20.4,56.3-48.1L5267.3,39.5
		c3.3-20.7-12.8-39.5-33.7-39.5h-189.3C5027.6,0.1,5013.2,12.3,5010.6,28.9"/>
</g>
</svg>
