<svg id="Icons" xmlns="http://www.w3.org/2000/svg" viewBox="0 0 39.83 36.08"><defs><style>.cls-1{fill:#2a82e6;}</style></defs><title>people</title><path class="cls-1" d="M4319.72,435.2c2.16,0,3.91,2.08,3.91,4.64s-1.75,7.08-3.91,7.08-3.91-4.52-3.91-7.08,1.75-4.64,3.91-4.64m0-2.5c-3.53,0-6.41,3.2-6.41,7.14,0,3.34,2.2,9.58,6.41,9.58s6.41-6.24,6.41-9.58c0-3.94-2.87-7.14-6.41-7.14Z" transform="translate(-4299.93 -432.7)"/><path class="cls-1" d="M4324.7,455.94c2.47,1.77,4.11,6.59,4.11,10.34h-18.17c0-3.75,1.63-8.57,4.11-10.34a9.18,9.18,0,0,0,10,0m-10-2.58a2.5,2.5,0,0,0-1.46.47c-3.22,2.31-5.15,8.15-5.15,12.37a2.57,2.57,0,0,0,2.5,2.58h18.17a2.57,2.57,0,0,0,2.5-2.58c0-4.23-1.93-10-5.15-12.33a2.52,2.52,0,0,0-1.46-.49,2.49,2.49,0,0,0-1.34.38,6.68,6.68,0,0,1-7.27,0,2.5,2.5,0,0,0-1.34-.39Z" transform="translate(-4299.93 -432.7)"/><path class="cls-1" d="M4313.35,465a.62.62,0,0,1-.62-.62c0-3.14.85-5.15,2.77-6.53a.62.62,0,0,1,.7,0,6.8,6.8,0,0,0,1.11.57.63.63,0,0,1-.47,1.16,8,8,0,0,1-.93-.45c-1.35,1.12-1.93,2.73-1.93,5.26A.62.62,0,0,1,4313.35,465Z" transform="translate(-4299.93 -432.7)"/><path class="cls-1" d="M4319.72,460.08c-.25,0-.49,0-.74,0a.63.63,0,0,1,.11-1.25c.21,0,.41,0,.62,0a.62.62,0,1,1,0,1.25Z" transform="translate(-4299.93 -432.7)"/><path class="cls-1" d="M4338.52,467.53h-4.87a1.25,1.25,0,1,1,0-2.5h3.53c-.38-2.8-1.88-6.76-3.84-8.32l-.88.24c-.29.07-.65.17-.77.21a1.25,1.25,0,0,1-.88-2.34c.25-.1.61-.19,1-.3a11.35,11.35,0,0,0,1.11-.32,1.32,1.32,0,0,1,1.2,0c3.43,2,5.62,8.46,5.62,12A1.25,1.25,0,0,1,4338.52,467.53Z" transform="translate(-4299.93 -432.7)"/><path class="cls-1" d="M4303.65,467.53h-2.46a1.25,1.25,0,0,1-1.25-1.25c0-3.57,2.19-10,5.62-12a1.25,1.25,0,0,1,1.2,0,4,4,0,0,1,.65.43,1,1,0,0,0,.27.18,1.25,1.25,0,1,1-.88,2.34,3,3,0,0,1-.61-.31c-1.87,1.64-3.3,5.46-3.67,8.18h1.12a1.25,1.25,0,0,1,0,2.5Z" transform="translate(-4299.93 -432.7)"/><path class="cls-1" d="M4310.7,451.32l-.41,0c-3.14-.11-5.06-5.42-5.06-8.33,0-3.25,2.31-5.89,5.16-5.89a1.25,1.25,0,1,1,0,2.5c-1.47,0-2.66,1.52-2.66,3.39,0,2.46,1.7,5.83,2.66,5.83l.2,0a2,2,0,0,0,1.85-1,1.25,1.25,0,1,1,2.08,1.39A4.6,4.6,0,0,1,4310.7,451.32Z" transform="translate(-4299.93 -432.7)"/><path class="cls-1" d="M4328.63,451.32a4.6,4.6,0,0,1-3.82-2.15,1.25,1.25,0,0,1,2.08-1.39,2,2,0,0,0,1.85,1l.2,0c1,0,2.66-3.37,2.66-5.83,0-1.87-1.19-3.39-2.66-3.39a1.25,1.25,0,0,1,0-2.5c2.84,0,5.16,2.64,5.16,5.89,0,2.91-1.92,8.22-5.06,8.33Z" transform="translate(-4299.93 -432.7)"/></svg>