<?xml version="1.0" encoding="utf-8"?>
<!-- Generator: Adobe Illustrator 21.1.0, SVG Export Plug-In . SVG Version: 6.00 Build 0)  -->
<svg version="1.1" id="Icons" xmlns="http://www.w3.org/2000/svg" xmlns:xlink="http://www.w3.org/1999/xlink" x="0px" y="0px"
	 viewBox="0 0 2284.1 4017.1" style="enable-background:new 0 0 2284.1 4017.1;" xml:space="preserve">
<style type="text/css">
	.st0{fill:#0B80E0;}
</style>
<g id="Mobile">
	<g>
		<path class="st0" d="M1143.7,3685.7c48.3,0,87.5-39.1,87.5-87.5c0-48.3-39.1-87.5-87.5-87.5c-48.4,0-87.5,39.2-87.5,87.5
			C1056.2,3646.6,1095.4,3685.7,1143.7,3685.7z M1231.2,361.4h-175c-48.4,0-87.5,39.1-87.5,87.5c0,48.4,39.1,87.5,87.5,87.5h175
			c48.3,0,87.5-39.1,87.5-87.5C1318.7,400.5,1279.6,361.4,1231.2,361.4z M1843.6,98.9H443.9c-193.2,0-349.9,156.7-349.9,349.9
			v3149.4c0,193.3,156.7,349.9,349.9,349.9h1399.7c193.2,0,349.9-156.6,349.9-349.9V448.9C2193.5,255.6,2036.8,98.9,1843.6,98.9z
			 M2018.6,3598.2c0,96.7-78.3,175-175,175H443.9c-96.6,0-175-78.3-175-175v-175h1749.7V3598.2z M2018.6,3248.3H268.9V798.8h1749.7
			V3248.3z M2018.6,623.8H268.9v-175c0-96.6,78.3-175,175-175h1399.7c96.6,0,175,78.3,175,175V623.8z"/>
	</g>
</g>
</svg>
