<?xml version="1.0" encoding="utf-8"?>
<!-- Generator: Adobe Illustrator 21.0.2, SVG Export Plug-In . SVG Version: 6.00 Build 0)  -->
<svg version="1.1" id="Layer_1" xmlns="http://www.w3.org/2000/svg" xmlns:xlink="http://www.w3.org/1999/xlink" x="0px" y="0px"
	 viewBox="0 0 196.7 203.4" style="enable-background:new 0 0 196.7 203.4;" xml:space="preserve">
<path fill="#0a80df" d="M196.1,200c1.8,2.3-1,4.6-3,2.7c-20.8-18.4-38.3-23.7-55.6-24.4c-9.2-0.4-18.3,0.5-27.9,1.3c-1.9,0.2-3.8,0.3-5.8,0.5
	c-0.8,0.1-1.7,0.1-2.6,0.2c-3.4,0.4-6.8,0.6-10.2,0.6c-16.3,0-31.7-4-45.7-11.9C31.2,161.1,20,150.1,12,136.2
	C4,122.4,0,107.1,0,90.8c0-16.3,4-31.7,12-45.6c8-14,19-25.1,32.9-33.1C58.7,4,73.8,0,89.8,0C106.4,0,122,4,136,11.9
	c14.1,7.9,25.3,19,33.4,32.9c8.1,13.9,12.1,29.2,12.1,45.6c0,6.3-0.6,12.4-1.8,18.4c-0.2,0.9-0.4,1.9-0.7,3.1c-0.2,1-0.5,2-0.8,2.9
	l-0.1,0c-1.6,5.2-4.6,12.5-10.2,21.9c-0.6,1-0.9,0.2-1-0.3c-2-13.8-8-24.3-18.7-31.1c-0.2-0.1-0.4-0.2-0.5-0.3
	c-1.7-1.1-3.6-2.1-5.6-2.9c-2.5-1.1-5.3-2.1-8.2-2.9c-1.8-0.5-5.8-0.3-4.4-1.7c0.6-0.6,9.3-0.7,19.4-0.1c0.2,0,0.4,0,0.6,0
	c0.2-2.1,0.3-4.3,0.3-6.5c0-17.2-5.7-31.3-17.4-42.9c-11.7-11.7-25.5-17.3-42-17.3c-16.9,0-30.6,5.7-41.9,17.4
	C37.2,59.7,31.7,73.7,31.7,90.6c0,16.9,5.7,30.7,17.3,42.4c11.7,11.7,25.2,17.3,41.4,17.3c0.8,0,1.5,0,2.3,0c0-0.2,0-0.4,0-0.6
	c-0.9-11.9-1.1-21.8,1.3-17.8c0.9,1.4,1.7,2.7,2.6,4c3.2,4.8,6.4,8.7,9.5,12c0.2,0.2,0.3,0.3,0.5,0.5c11.5,11.7,22.8,14.6,34.9,17.5
	c0.3,0.1,0.5,0.1,0.8,0.2c2,0.5,4,1,6,1.5C162.5,171.4,178,177.5,196.1,200 M156.4,128.1c-1.8-0.5-3.1-0.1-3.8,1.1
	c-1,1.8-0.3,5.4,1.7,8.5c2,3.2,3.8,4.8,5.1,4.8c0.5,0,0.9-0.2,1.2-0.6c0.8-0.9,1-2.7,0.7-5C161.1,134.5,159.7,129.6,156.4,128.1
	 M136.4,142.9c-1.8,0-3.3,0.6-4.3,1.8c-2.4,2.9-1.3,8.1,2.3,11.3c1.6,1.4,3.9,2.2,6.2,2.2c2.3,0,4.2-0.9,5.4-2.4
	c2.1-2.9,0.9-6.9-3.1-10.3C140.9,143.8,138.6,142.9,136.4,142.9"/>
</svg>
