<svg id="Icons" xmlns="http://www.w3.org/2000/svg" viewBox="0 0 40 40"><defs><style>.cls-1{fill:#2a82e6;}</style></defs><title>smile</title><path class="cls-1" d="M4749.53,365.26a17.5,17.5,0,1,1-17.5,17.5,17.5,17.5,0,0,1,17.5-17.5m0-2.5a20,20,0,1,0,20,20,20,20,0,0,0-20-20Z" transform="translate(-4729.53 -362.76)"/><path class="cls-1" d="M4749.48,395.08a10,10,0,0,1-8.59-5,.63.63,0,1,1,1.08-.62,8.66,8.66,0,0,0,14.74.43.63.63,0,1,1,1,.69A9.89,9.89,0,0,1,4749.48,395.08Z" transform="translate(-4729.53 -362.76)"/><path class="cls-1" d="M4745.29,383.34a.62.62,0,0,1-.49-.24l-2.55-3.27-2.45,2.9a.62.62,0,1,1-1-.81l2.95-3.49a.62.62,0,0,1,1,0l3,3.88a.62.62,0,0,1-.49,1Z" transform="translate(-4729.53 -362.76)"/><path class="cls-1" d="M4753.45,383.34a.62.62,0,0,1-.49-1l3-3.88a.62.62,0,0,1,.48-.24.65.65,0,0,1,.49.22l2.95,3.49a.62.62,0,0,1-1,.81l-2.45-2.9-2.55,3.27A.62.62,0,0,1,4753.45,383.34Z" transform="translate(-4729.53 -362.76)"/><path class="cls-1" d="M4738.19,373.38a.63.63,0,0,1-.47-1q.34-.39.72-.77a.62.62,0,1,1,.88.88q-.35.35-.67.71A.62.62,0,0,1,4738.19,373.38Z" transform="translate(-4729.53 -362.76)"/><path class="cls-1" d="M4734.59,387a.63.63,0,0,1-.61-.5,16.49,16.49,0,0,1,1.27-10.39.62.62,0,1,1,1.13.54,15.23,15.23,0,0,0-1.18,9.6.62.62,0,0,1-.49.74Z" transform="translate(-4729.53 -362.76)"/><path class="cls-1" d="M4750.51,396.91H4748a.62.62,0,0,1,0-1.25h2.5a.62.62,0,0,1,0,1.25Z" transform="translate(-4729.53 -362.76)"/></svg>