<?xml version="1.0" encoding="utf-8"?>
<!-- Generator: Adobe Illustrator 21.1.0, SVG Export Plug-In . SVG Version: 6.00 Build 0)  -->
<svg version="1.1" id="Icons" xmlns="http://www.w3.org/2000/svg" xmlns:xlink="http://www.w3.org/1999/xlink" x="0px" y="0px"
	 viewBox="0 0 3837.6 3842.5" style="enable-background:new 0 0 3837.6 3842.5;" xml:space="preserve">
<style type="text/css">
	.st0{fill:#0B80E0;}
</style>
<g id="Paper_Airplane_x40_2x.png">
	<g>
		<path class="st0" d="M1416.5,2496c0-45.7-36.9-82.5-82.4-82.5c-22.7,0-43.4,9.3-58.3,24.2l-824.5,824.5
			c-14.9,15-24.2,35.6-24.2,58.3c0,45.6,36.9,82.4,82.4,82.4c22.8,0,43.4-9.2,58.3-24.2l824.4-824.5
			C1407.3,2539.3,1416.5,2518.7,1416.5,2496z M897.6,2554.2l82.4-82.4c14.9-14.9,24.2-35.5,24.2-58.3c0-45.5-36.9-82.4-82.4-82.4
			c-22.7,0-43.4,9.3-58.3,24.2l-82.4,82.4c-14.9,15-24.2,35.6-24.2,58.4c0,45.4,36.9,82.4,82.4,82.4
			C862.1,2578.3,882.7,2569.2,897.6,2554.2z M3725,187.4c0-45.5-36.9-82.4-82.4-82.4c-12.7,0-24.4,3.4-35.2,8.6l-0.2-0.6L148,1595.4
			c-0.2,0.1-0.5,0.2-0.7,0.3l-3,1.3l0.2,0.5c-27.7,13.3-47.3,41.1-47.3,73.9c0,37.4,25.4,67.8,59.6,77.9l-0.4,1.3l1362.1,560.8
			l560.8,1362.1l1.3-0.4c10.1,34.1,40.4,59.6,77.8,59.6c32.8,0,60.6-19.5,73.9-47.3l0.6,0.2l1.3-3c0.1-0.2,0.2-0.5,0.3-0.7
			L3717,222.8l-0.9-0.4C3721.3,211.8,3725,200.1,3725,187.4z M392,1670.1L3281.6,431.7l-1720,1720.1L392,1670.1z M2159.8,3438
			l-481.6-1169.6l1720.1-1720L2159.8,3438z M1416.5,2825.7c-22.7,0-43.4,9.3-58.3,24.2l-247.3,247.3c-14.9,14.9-24.2,35.6-24.2,58.3
			c0,45.6,36.9,82.4,82.4,82.4c22.8,0,43.4-9.2,58.3-24.2l247.3-247.3c14.9-14.9,24.2-35.5,24.2-58.3
			C1498.9,2862.6,1462,2825.7,1416.5,2825.7z"/>
	</g>
</g>
</svg>
