<?xml version="1.0" encoding="utf-8"?>
<!-- Generator: Adobe Illustrator 21.1.0, SVG Export Plug-In . SVG Version: 6.00 Build 0)  -->
<svg version="1.1" id="Icons" xmlns="http://www.w3.org/2000/svg" xmlns:xlink="http://www.w3.org/1999/xlink" x="0px" y="0px"
	 viewBox="0 0 3312.5 3909.8" style="enable-background:new 0 0 3312.5 3909.8;" xml:space="preserve">
<style type="text/css">
	.st0{fill:#0B80E0;}
</style>
<g id="Cash_Register">
	<g>
		<path class="st0" d="M1400.4,3477.9h510.4c47,0,85.1-38,85.1-85.1c0-46.9-38.1-85.1-85.1-85.1h-510.4c-47,0-85.1,38.1-85.1,85.1
			C1315.4,3439.8,1353.4,3477.9,1400.4,3477.9z M2166,2287h-170.1v170.1H2166V2287z M1825.7,1266.3h-1361v1190.9h1361V1266.3z
			 M1655.6,2287H634.9v-850.6h1020.8V2287z M1145.2,2797.4h170.1v-170.1h-170.1V2797.4z M805,2797.4h170.1v-170.1H805V2797.4z
			 M634.9,2627.3H464.7v170.1h170.1V2627.3z M2166,1606.5h-170.1v170.1H2166V1606.5z M2676.4,1776.6h170.1v-170.1h-170.1V1776.6z
			 M2676.4,2116.9h170.1v-170.1h-170.1V2116.9z M2676.4,2457.1h170.1V2287h-170.1V2457.1z M2846.5,1266.3h-850.6v170.1h850.6V1266.3
			z M3016.6,926h-595.4V585.8h255.2c93.9,0,170.1-76.1,170.1-170.1V245.5c0-94-76.2-170.1-170.1-170.1H1655.6
			c-94,0-170.1,76.2-170.1,170.1v170.1c0,94,76.2,170.1,170.1,170.1h255.2V926H294.6c-94,0-170.1,76.2-170.1,170.1V3648
			c0,94,76.2,170.1,170.1,170.1h2722c94,0,170.1-76.2,170.1-170.1V1096.1C3186.7,1002.2,3110.6,926,3016.6,926z M1825.7,415.6
			h-170.1V245.5h170.1V415.6z M1995.9,245.5h680.5v170.1h-680.5V245.5z M2251.1,585.8V926h-170.1V585.8H2251.1z M3016.6,3648h-2722
			v-510.4h2722V3648z M3016.6,2967.5h-2722V1096.1h2722V2967.5z M2336.1,2797.4h510.4v-170.1h-510.4V2797.4z M2336.1,2116.9h170.1
			v-170.1h-170.1V2116.9z M2336.1,2457.1h170.1V2287h-170.1V2457.1z M2166,1946.8h-170.1v170.1H2166V1946.8z M2506.2,1606.5h-170.1
			v170.1h170.1V1606.5z"/>
	</g>
</g>
</svg>
