<svg id="Icons" xmlns="http://www.w3.org/2000/svg" viewBox="0 0 50.09 50.09"><defs><style>.cls-1{fill:#fff;}.cls-2{fill:none;stroke:#fff;stroke-miterlimit:10;}</style></defs><title>tw</title><path class="cls-1" d="M562.85,161.54a12.32,12.32,0,0,1-3.91,1.5,6.16,6.16,0,0,0-10.65,4.21,6.26,6.26,0,0,0,.16,1.4,17.47,17.47,0,0,1-12.69-6.43,6.16,6.16,0,0,0,1.9,8.22,6.14,6.14,0,0,1-2.79-.77v.08a6.16,6.16,0,0,0,4.94,6,6.18,6.18,0,0,1-2.78.11,6.16,6.16,0,0,0,5.75,4.27,12.35,12.35,0,0,1-7.64,2.63,12.56,12.56,0,0,1-1.47-.09,17.42,17.42,0,0,0,9.43,2.76c11.32,0,17.51-9.38,17.51-17.51,0-.27,0-.53,0-.8a12.47,12.47,0,0,0,3.07-3.19,12.25,12.25,0,0,1-3.53,1A6.17,6.17,0,0,0,562.85,161.54Z" transform="translate(-523.63 -148.24)"/><circle class="cls-2" cx="25.04" cy="25.04" r="24.54"/></svg>