<svg id="Icons" xmlns="http://www.w3.org/2000/svg" viewBox="0 0 50.09 50.09"><defs><style>.cls-1{fill:none;stroke:#fff;stroke-miterlimit:10;}.cls-2{fill:#fff;}</style></defs><title>vk</title><circle class="cls-1" cx="25.04" cy="25.04" r="24.54"/><path class="cls-2" d="M706.14,171.58v-.08a5.86,5.86,0,0,0,4-5.95c0-4.06-3.33-6.36-6.95-6.36H690.69v27.56h11.42c7,0,9.7-4.35,9.7-8.36C711.81,174.06,709.45,172.26,706.14,171.58Zm-9-7.48h1.45c1.05,0,2.69-.12,3.58.4a2.88,2.88,0,0,1,1.32,2.49,3.18,3.18,0,0,1-1.13,2.49,5.26,5.26,0,0,1-3.31.64h-1.92Zm6.59,17c-1,.68-2.41.6-3.54.6h-3.05v-6.85h3.32a6.48,6.48,0,0,1,3.15.52,3.49,3.49,0,0,1,1.52,2.82A3.55,3.55,0,0,1,703.73,181.05Z" transform="translate(-675.39 -148.24)"/></svg>