<?xml version="1.0" encoding="utf-8"?>
<!-- Generator: Adobe Illustrator 21.0.2, SVG Export Plug-In . SVG Version: 6.00 Build 0)  -->
<svg version="1.1" xmlns="http://www.w3.org/2000/svg" xmlns:xlink="http://www.w3.org/1999/xlink" x="0px" y="0px"
	 viewBox="0 0 199.9646 196.9228" enable-background="new 0 0 199.9646 196.9228" xml:space="preserve">
<g id="Layer_1">
	<path id="Combined-Shape" fill="#0a80df" d="M99.5065,0c15.6006,0,30.4434,3.5742,43.7627,9.9677c2.0889,0.9424,4.1914,2.0703,6.2734,3.1993
		l-9.1328,8.0898L126.7184,7.1494l-23.5918,20.6885L89.234,12.9765L45.8522,51.5371l27.7744,30.2832l-10.8428,9.4023
		l27.4024,30.2832l-10.8438,9.3985l39.1973,43.0742l23.1992-21.0674l20.1777,22.5771c-3.999,3.0098-8.375,6.0254-13.1259,8.6543
		c-14.4629,8.087-31.209,12.7803-49.0918,12.7803c-54.9922,0-99.6983-44.1924-99.6983-98.5459C-0.1937,44.3906,44.5202,0,99.5065,0z
		 M81.2379,92.3535l23.7842-21.0674l21.3145,23.5107l-23.7891,21.0655L81.2379,92.3535z M98.1764,132.9824l23.5908-21.2539
		l21.502,23.5088l-23.7852,21.0683L98.1764,132.9824z M64.3141,52.292l23.7774-21.0674l21.3095,23.5107L85.6159,75.8017
		L64.3141,52.292z M107.8766,41.0029l17.6963-15.7988l15.9863,17.4931l-17.6963,15.9854L107.8766,41.0029z M139.4646,113.4179
		l17.6904-15.7998l15.9854,17.6758l-17.6973,15.8096L139.4646,113.4179z M155.0641,148.9707l17.6973-15.8028l15.9726,17.4922
		l-17.6904,15.9834L155.0641,148.9707z M162.2956,67.7119l11.7949-10.5342l10.6513,11.666L172.9489,79.374L162.2956,67.7119z
		 M147.0739,32.915l11.7959-10.7187l10.6592,11.8476l-11.8047,10.5332L147.0739,32.915z M177.3249,102.5117l11.7949-10.5332
		l10.8447,11.6621l-11.9824,10.5303L177.3249,102.5117z M124.2418,76.3662l17.6973-15.7998l15.9785,17.4892l-17.6894,15.8028
		L124.2418,76.3662z"/>
</g>
<g id="Слой_1">
</g>
</svg>
