<?xml version="1.0" encoding="utf-8"?>
<!-- Generator: Adobe Illustrator 21.0.2, SVG Export Plug-In . SVG Version: 6.00 Build 0)  -->
<svg version="1.1" id="Layer_1" xmlns="http://www.w3.org/2000/svg" xmlns:xlink="http://www.w3.org/1999/xlink" x="0px" y="0px"
	 viewBox="0 0 211.5 278.1" style="enable-background:new 0 0 211.5 278.1;" xml:space="preserve">
<path fill="#0a80df" d="M178,114v98.4L26.3,261.8l119.9-81.7V114V0c0,0-85.8,68.3-112.6,88.3C1.3,112.4,0,122.3,0,138l0,119.8
	c0,11.2,9.2,20.4,20.4,20.4h191.1V114H178z M91.4,110.6c7-8.4,17.3-11.3,22.9-6.6c5.6,4.7,4.5,15.3-2.5,23.7
	c-7,8.4-17.3,11.3-22.9,6.6C83.3,129.6,84.4,119,91.4,110.6z"/>
</svg>
