<svg id="Icons" xmlns="http://www.w3.org/2000/svg" viewBox="0 0 50.09 50.09"><defs><style>.cls-1{fill:none;stroke:#f63d27;stroke-miterlimit:10;}.cls-2{fill:#e14e42;}</style></defs><title>yt</title><circle class="cls-1" cx="25.04" cy="25.04" r="24.54"/><path class="cls-2" d="M787.55,171.37h-19a5.48,5.48,0,0,0-5.48,5.48v4.4a5.48,5.48,0,0,0,5.48,5.48h19a5.48,5.48,0,0,0,5.48-5.48v-4.4A5.48,5.48,0,0,0,787.55,171.37Zm-15,3.43h-1.77v8.79H769V174.8h-1.77v-1.5h5.25Zm5,8.79H776v-.83a3.21,3.21,0,0,1-.87.7,1.83,1.83,0,0,1-.88.24.94.94,0,0,1-.79-.34,1.64,1.64,0,0,1-.27-1V176h1.52v5.83a.65.65,0,0,0,.09.39.37.37,0,0,0,.31.12.87.87,0,0,0,.42-.16,2.06,2.06,0,0,0,.47-.41V176h1.52ZM783,182a1.89,1.89,0,0,1-.36,1.24,1.26,1.26,0,0,1-1,.43,1.81,1.81,0,0,1-.79-.17,2,2,0,0,1-.65-.51v.58h-1.53V173.3h1.53v3.31a2.37,2.37,0,0,1,.65-.53,1.48,1.48,0,0,1,.7-.18,1.31,1.31,0,0,1,1.1.48,2.26,2.26,0,0,1,.38,1.42Zm5.26-2h-2.9v1.43a1.65,1.65,0,0,0,.15.83.56.56,0,0,0,.52.23.63.63,0,0,0,.53-.2,1.64,1.64,0,0,0,.15-.87v-.35h1.56v.39a2.43,2.43,0,0,1-.57,1.76,2.26,2.26,0,0,1-1.7.59,2.09,2.09,0,0,1-1.61-.63,2.42,2.42,0,0,1-.59-1.72V178a2.14,2.14,0,0,1,.65-1.61,2.28,2.28,0,0,1,1.66-.62,2.13,2.13,0,0,1,1.6.58,2.28,2.28,0,0,1,.56,1.66Z" transform="translate(-752.98 -146.83)"/><path class="cls-2" d="M786,177.14a.6.6,0,0,0-.52.21,1.11,1.11,0,0,0-.16.68v.77h1.34V178a1.12,1.12,0,0,0-.16-.68A.58.58,0,0,0,786,177.14Z" transform="translate(-752.98 -146.83)"/><path class="cls-2" d="M780.82,177.12a.75.75,0,0,0-.32.07,1.11,1.11,0,0,0-.31.23v4.73a1.34,1.34,0,0,0,.36.27.9.9,0,0,0,.37.08.5.5,0,0,0,.41-.16.84.84,0,0,0,.13-.52V177.9a.92.92,0,0,0-.16-.58A.59.59,0,0,0,780.82,177.12Z" transform="translate(-752.98 -146.83)"/><polygon class="cls-2" points="15.73 10.56 18.02 17.41 18.02 21.9 19.94 21.9 19.94 17.2 22.18 10.56 20.22 10.56 19.03 15.09 18.91 15.09 17.66 10.56 15.73 10.56"/><path class="cls-2" d="M776,160.73a1.92,1.92,0,0,0-.69,1.55v4.34a2.22,2.22,0,0,0,.67,1.7,2.53,2.53,0,0,0,1.8.63,2.61,2.61,0,0,0,1.83-.61,2.19,2.19,0,0,0,.66-1.68v-4.32a2,2,0,0,0-.68-1.57,2.52,2.52,0,0,0-1.74-.61A2.81,2.81,0,0,0,776,160.73Zm2.53,1.48v4.56a.7.7,0,0,1-.21.53.78.78,0,0,1-.55.19.68.68,0,0,1-.52-.19.73.73,0,0,1-.18-.53v-4.56a.57.57,0,0,1,.19-.44.76.76,0,0,1,.51-.17.84.84,0,0,1,.55.17A.55.55,0,0,1,778.52,162.22Z" transform="translate(-752.98 -146.83)"/><path class="cls-2" d="M786.52,168.73v-8.36h-1.71v6.35a2.33,2.33,0,0,1-.53.45,1,1,0,0,1-.48.18.41.41,0,0,1-.35-.13.69.69,0,0,1-.11-.43v-6.41h-1.71v7a1.76,1.76,0,0,0,.3,1.12,1.08,1.08,0,0,0,.89.38,2.14,2.14,0,0,0,1-.27,3.61,3.61,0,0,0,1-.78v.93Z" transform="translate(-752.98 -146.83)"/></svg>