<svg xmlns="http://www.w3.org/2000/svg" viewBox="0 0 11.79 21.62"><defs><style>.cls-1{fill:#0b80e0;}</style></defs><title>Ресурс 2</title><g id="Слой_2" data-name="Слой 2"><g id="Icons"><g id="Mobile"><path class="cls-1" d="M5.9,20.14a.49.49,0,1,0-.49-.49A.49.49,0,0,0,5.9,20.14ZM6.39,1.47h-1a.49.49,0,0,0,0,1h1a.49.49,0,0,0,0-1ZM9.83,0H2A2,2,0,0,0,0,2V19.65a2,2,0,0,0,2,2H9.83a2,2,0,0,0,2-2V2A2,2,0,0,0,9.83,0Zm1,19.65a1,1,0,0,1-1,1H2a1,1,0,0,1-1-1v-1h9.83Zm0-2H1V3.93h9.83Zm0-14.74H1V2A1,1,0,0,1,2,1H9.83a1,1,0,0,1,1,1Z"/></g></g></g></svg>