<!-- Generator: Adobe Illustrator 21.0.0, SVG Export Plug-In  -->
<svg version="1.1"
	 xmlns="http://www.w3.org/2000/svg" xmlns:xlink="http://www.w3.org/1999/xlink" xmlns:a="http://ns.adobe.com/AdobeSVGViewerExtensions/3.0/"
	 x="0px" y="0px" width="539.1px" height="325.4px" viewBox="0 0 539.1 325.4" style="enable-background:new 0 0 539.1 325.4;"
	 xml:space="preserve">
<style type="text/css">
	.st0{opacity:0.3;}
	.st1{fill:none;stroke:#1368B8;stroke-width:0.3;stroke-linecap:round;stroke-linejoin:round;stroke-miterlimit:10;}
	.st2{fill:none;stroke:#1368B8;stroke-linecap:round;stroke-linejoin:round;stroke-miterlimit:10;}
	.st3{fill:none;stroke:#1368B8;stroke-width:2;stroke-linecap:round;stroke-linejoin:round;stroke-miterlimit:10;}
	.st4{fill:none;stroke:#1368B8;stroke-width:0.5;stroke-linecap:round;stroke-linejoin:round;stroke-miterlimit:10;}
	
		.st5{fill-rule:evenodd;clip-rule:evenodd;fill:none;stroke:#1368B8;stroke-width:0.5;stroke-linecap:round;stroke-linejoin:round;stroke-miterlimit:10;}
	
		.st6{fill-rule:evenodd;clip-rule:evenodd;fill:none;stroke:#1368B8;stroke-linecap:round;stroke-linejoin:round;stroke-miterlimit:10;}
</style>
<defs>
</defs>
<g>
	<g class="st0">
		<path class="st1" d="M150,78l-5.1-5.1 M384.9,8.5l-5.4-5.4 M375.7,3.1l9.5,9.5 M371.9,3.1l13.3,13.3 M368.2,3.1l17.1,17
			 M385.3,23.9L364.4,3.1 M360.7,3.1l24.6,24.5 M356.9,3.1l28.3,28.3 M385.1,35.1l-32-32 M349.7,3.5l35.5,35.5 M348.2,5.4l37,37.2
			 M385.3,46.5L346.2,7.2 M345.1,9.9l13.8,13.9 M362.1,27.1l23.1,23 M395.3,60.3l-2.2-2.2 M343.5,11.8l13.2,13.3 M362.3,30.8
			l22.8,23 M395.2,63.9l-6.3-6.3 M342,14.3l13.5,13.5 M362.3,34.8l32.9,32.9 M340.4,16.2l13.7,13.7 M395.3,71.5l-33.1-33.3
			 M352.4,32.3l-13.5-13.6 M362.2,42.3l33.1,33 M351,34.6L337.4,21 M393.5,77.3l-31.3-31.3 M336.7,23.5l12.6,12.9 M362.2,49.8
			l27.6,27.5 M335.3,26.4l12.3,12.5 M385.9,77.2l-23.8-23.7 M346.1,41.2l-12.2-12.5 M361.6,56.6l22.6,22.6 M332.6,31.2l12.2,12.5
			 M384.7,83.5L360.3,59 M344.1,46.8l-12.9-13.2 M384.7,87.2L356.5,59 M329.9,36.1l13.3,13.5 M352.7,59L385,91.3 M328.6,38.7
			l13.5,13.6 M349,59l32.2,32.2 M327.4,41.4l12.3,12.2 M377.5,91.3L345.2,59 M303.9,21L285.5,3.1 M338.4,56.1L326,43.7 M360,77.6
			L341.5,59 M373.7,91.3L361.5,79 M305.4,26.9L281.7,3.1 M356.6,77.9l-32.2-32.1 M369.9,91.2l-9.3-9.3 M306.7,32L276.9,2
			 M323.4,48.5l30,30 M361.1,86.1l5.2,5.2 M307.3,36.4L273.1,2 M321.8,50.7l27.8,27.8 M268.6,1.2L308.1,41 M343.7,76.3l-23.4-23.4
			 M308,44.6L264.8,1.2 M341.3,77.7l-22.2-22.2 M261.8,2l46.4,46.6 M337.8,77.9l-18.2-18.2 M308,52L259.2,3.1 M334,77.9l-16.3-16.3
			 M256.2,3.9c5.7,5.7,11.4,11.5,17.2,17.2 M278.4,26.1c9.7,9.6,19.5,19.4,29.3,29.3 M330.3,77.9l-12.2-12.2 M268.5,19.7L253.5,5
			 M281.1,32.5l26.1,26.2 M326.6,78l-8.5-8.5 M265.1,20.1L250.9,6 M282.1,37.3l25,25.1 M323.3,78.4l-5.1-5.1 M249,7.7l14.4,14.1
			 M306,65.1l-23.4-23.8 M262.6,25.2L247,9.6 M282.5,45.2l22.8,22.9 M260.8,27.1l-15.7-15.7 M304.8,71.4l-22.2-22.3 M243.3,13.5
			l15.6,15.6 M282.4,52.5l20.8,20.8 M258,32l-16.7-16.7 M302.2,76.1L282.1,56 M239.8,17.5l17.8,17.8 M281.3,59l19.4,19.4
			 M238.2,19.7L257,38.5 M298,79.4L280.5,62 M256.5,41.7l-19.7-19.7 M279.3,64.5l15,15 M256.4,45.4L236,25 M279.3,68.2l11.4,11.3
			 M234.8,27.6l21.9,21.9 M285.4,78.1l-8.8-8.8 M206.6,3.1l5.2,5.2 M256.9,53.4l-22.6-22.5 M281.3,77.8l-5.8-5.8 M211.7,12l-8.9-8.9
			 M257.9,58.1l-23.8-23.8 M273.1,73.4l4.4,4.4 M199.1,3.1l12.6,12.6 M259.9,63.9l-26.3-26.3 M269.7,73.7l4,4 M195.3,3.1l16.6,16.6
			 M233.3,41.1l37,36.9 M211.8,23.4L191.5,3.1 M266.5,78L233,44.5 M187.8,3.1l24,23.9 M232.5,47.8l29.7,29.7 M211.8,30.9L184,3.1
			 M257.5,76.5l-25.2-25.2 M180.3,3.1l31.5,31.4 M232.3,55.1l21,21 M176.5,3.1L212,38.5 M232.7,59.3l16.4,16.3 M211.9,42.2
			L176.1,6.4 M245.3,75.6l-12.1-12.1 M187.5,21.6L174.9,9 M212,46.1l-23-23 M236.2,70.3l5.9,5.8 M185.2,23.1l-11.8-11.8 M211.9,49.7
			l-22.9-22.9 M183.8,25.4l-11.9-11.9 M211.7,53.3L189,30.6 M170.7,16.1l11.5,11.5 M188.8,34.2l23.7,23.7 M168.8,17.9l11.8,11.8
			 M211.7,60.4l-23-22.6 M222.3,71.4l-2.5-2.5 M166.9,19.8l12.3,12.2 M211.1,64l-22.3-22.3 M222.4,75.2l-3.6-3.6 M177.9,34.5
			L165.3,22 M188.9,45.6L210.4,67 M220.8,77.4l-2.2-2.2 M163.5,23.9l12.6,12.6 M189,49.4l20.7,20.7 M162,26.1l12.6,12.6 M208.1,72.2
			l-19.2-19.2 M172.8,40.7l-12.5-12.5 M188.6,56.5L207,74.9 M158.8,30.5l12.6,12.6 M205.9,77.5l-18.9-18.9 M169.7,45.1l-11.9-11.9
			 M205.2,80.6l-21.8-21.8 M156.1,35.3L169,48.2 M180,59.2l24.4,24.4 M168.8,51.7l-14.1-14.1 M204.1,87l-27.9-27.9 M153.5,40.2
			l13.7,13.7 M172.7,59.4L204,90.7 M152.3,42.7L166,56.4 M199.7,90.2l-31.6-31.5 M183.9,78.1l-33.5-33.4 M187.2,81.4l8.8,8.8
			 M180.1,78l-31.2-31.2 M192.4,90.4l-5.1-5.1 M147.8,49.5l28.9,28.8 M172.6,78.1l-25-25 M168.8,78l-22.8-22.7 M144.9,57.9L165.1,78
			 M161.3,78l-16.5-16.5 M157.5,78l-12.5-12.5 M153.8,78l-8.8-8.8"/>
		<path class="st2" d="M211.9,58V3h-35.7c-15.3,23.3-24,38.1-31.9,53.4v21.3h43.2v13h16.8 M217.2,77.7h5.2V67 M165.8,58.3
			c7.2-15.3,13.1-24.6,22-38.4h0.5V59h-22.5V58.3z M299.6,79.2c6-7.9,9.2-19.1,9.2-32.7c0-29.2-15.1-46.1-38.6-46.1
			s-38.7,17-38.7,46.1c0,11.9,2.5,21.8,7.1,29.4 M270.2,73.3c-7.2,0-12.4-8.6-12.4-26.7c0-18.1,5.2-26.3,12.4-26.3
			c7.2,0,12.4,8.2,12.4,26.3C282.6,64.7,277.4,73.3,270.2,73.3z M360.6,90.7H385v-13h10.5V58H385V3h-35.7
			c-15.3,23.3-24,38.1-31.9,53.4v21.3h43.2V90.7z M338.9,58.3c7.2-15.3,13.1-24.6,22-38.4h0.5V59h-22.5V58.3z"/>
	</g>
	<path class="st2" d="M176.1,257.9c0-4.6,3.7-8.3,8.3-8.3s8.3,3.7,8.3,8.3c0,4.6-3.7,8.3-8.3,8.3S176.1,262.4,176.1,257.9z
		 M166.2,266.1c4.6,0,8.3-3.7,8.3-8.3c0-4.6-3.7-8.3-8.3-8.3s-8.3,3.7-8.3,8.3C158,262.4,161.7,266.1,166.2,266.1z M207.7,226.3
		c0-1.8-1.4-3.2-3.2-3.2h-8.2c-1.8,0-3.2,1.4-3.2,3.2v25.1c0,1.8,1.4,3.2,3.2,3.2h8.2c1.8,0,3.2-1.4,3.2-3.2V226.3z M152.4,242
		c0,3.4,1.7,4.8,4.1,4.8h31.7c2.4,0,3.6-1.4,3.6-4.8v-5.4c0-3.4-1.2-5.7-3.6-5.7h-31.7c-2.4,0-4.1,2.3-4.1,5.7V242z M153.1,233.2
		h-47.8 M111.1,246.8h45.1 M41.4,227.4l-9.4-0.1c-3.7,0-5.8,2.7-5.8,6.3V245c0,3.6,0.5,7.4,2.8,7.4 M29.8,263.3v13.1
		c0,0.3,0.3,0.6,0.6,0.6h1.3c0.3,0,0.6-0.3,0.6-0.6v-13.8 M263.4,256.3c0,4-3.3,7.3-7.3,7.3c-4,0-7.3-3.3-7.3-7.3
		c0-4,3.3-7.3,7.3-7.3C260.1,249,263.4,252.3,263.4,256.3z M72.5,230.7l-2.2-2.2 M68,282l2.2,2.2 M46.8,267.2l-0.8,3 M94.4,242.4
		l-0.8,3 M94.4,270.3l-3,0.8 M46.1,242.4l3-0.8 M59.3,233l-3-0.8 M84.2,280.5l-3-0.8 M56.3,280.5l-0.8-3 M84.2,232.2l0.8,3
		 M95.9,258.6l2.2-2.2 M42.3,256.3l2.2-2.2 M53.6,236.6l-3.1,0 M90,276.1l-3.1,0 M61.4,280.6l1.6,2.7 M79,232.1l-1.6-2.7
		 M97.2,249.1l-1.5,2.7 M44.8,260.8l-1.5,2.7 M46,247.5l-2.7,1.6 M97.2,263.6l-2.7,1.6 M74.7,281.7l2.7,1.5 M63,229.4l2.7,1.5
		 M90,236.6l0,3.1 M50.5,276.1l0-3.1 M99.1,256.3c0,15.8-12.8,28.5-28.6,28.5S42,272.1,42,256.3s12.8-28.5,28.6-28.5
		S99.1,240.6,99.1,256.3z M87,256.3c0,9.1-7.4,16.5-16.5,16.5s-16.5-7.4-16.5-16.5c0-9.1,7.4-16.5,16.5-16.5S87,247.3,87,256.3z
		 M79.7,256.3c0,5.1-4.1,9.2-9.2,9.2c-5.1,0-9.2-4.1-9.2-9.2c0-5.1,4.1-9.2,9.2-9.2C75.6,247.2,79.7,251.3,79.7,256.3z M207.7,226.9
		V113.3c0-0.6,11.8-45.2,11.8-45.2l7.2-3.7l2.6-6.9h-16.8c0,0-12.9,54.4-12.8,56.1v109.5 M94.2,223.1h58.2v-7.9H29.9V227 M330,207.3
		H219.5 M298.2,246.1c-0.2-5.9-0.7-8.2-3.5-15c-3.1-7.6-15.1-19.1-27.8-19.1c-4.2,0-4-4.5-4-4.5v-90.8 M318.9,156.3l-3.3-30.4
		c0,0-0.9-1.3-2.3-1.4h-40.6c0,0-1.9,1.1-1.9,3.4s0,24.5,0,24.5s-0.6,7.6,2.1,7.6s14.9,0,14.9,0h28.6 M332.2,175.8H326v31.5
		 M227.4,128.5h23.7 M227.4,136.4h23.7 M227.4,144.3h23.7 M227.4,152.1h23.7 M227.4,160h23.7 M322.1,152.1 M326.4,156.5h-9.1
		c-0.3,0-0.5,0.2-0.5,0.5v9.1c0,0.3,0.2,0.5,0.5,0.5h9.1c0.3,0,0.5-0.2,0.5-0.5V157C326.8,156.7,326.6,156.5,326.4,156.5z
		 M231.3,194.7c0,4.3,0.9,4.8,4.7,4.8h13.7c3.9,0,5.2-0.5,5.2-4.8v-14.3c0-4.3-1.4-4.6-5.2-4.6h-13.7c-3.9,0-4.7,0.3-4.7,4.6V194.7z
		 M318.1,258.6v-47.3 M318.1,249.4l-27.6,0.2v12.9 M255,218.4v-11.1 M336.2,226.8h-8.8c-0.4,0-0.6,0.3-0.6,0.6v8.8
		c0,0.4,0.3,0.6,0.6,0.6h8.8c0.4,0,0.6-0.3,0.6-0.6v-8.8C336.9,227.1,336.6,226.8,336.2,226.8z M333.9,211.2c0-2.2,0-3.8-2.3-3.8
		h-5.8c-2.2,0-7.7,2.2-7.7,4.4v47.9 M336.4,246.9h-6.6c-0.3,0-0.5,0.2-0.5,0.5v9.1c0,0.3,0.2,0.5,0.5,0.5h6.6c0.3,0,0.5-0.2,0.5-0.5
		v-9.1C336.9,247.1,336.7,246.9,336.4,246.9z M336,166l-11.1-47.9 M320.9,167l-2.8,4.9 M320.4,128.7l-2.3-6.1l-3.6,0 M318.1,238.9
		h-19.7 M318.1,223.1h-27.6 M270.8,183.7h7.9 M278.7,191.6v-15.8 M278.7,191.6h-7.9 M127.5,285.5H0.5 M332.7,285.5H143.3
		 M538.6,285.5H370.2 M433.3,324.9H291.3 M54.5,324.9h221"/>
	<line class="st3" x1="158.2" y1="254.6" x2="113" y2="254.6"/>
	<line class="st3" x1="210.2" y1="257.4" x2="194.4" y2="257.4"/>
	<path id="Path_F_1_" class="st3" d="M215.6,112.3l9-36.3c0,0,62.5,2.4,74.7,4.3c12.2,1.8,21,17.6,21,17.6l5.2,19.8l-1.9-0.9H215.6
		V112.3z M326.3,140.5l5.1,22.8c0,0,1.4,2.7,4.1,3.2c0,5.8-1.5,14.9-1.5,14.9 M333.9,226.4v-45.1 M333.9,246.4v-9 M217.4,207.3
		l-0.6-89.4 M323.7,128.6l-2.3-8.5l2.2-3.5 M211.6,270.4h7.9 M211.6,231.5v38.9 M217.4,207.3l-5.8,24.2 M326,132.4 M318.1,259.9
		c0,0-0.8,2.6-5.3,2.6 M270,255.4h20.6v7.1c0,0,19.5,0,22.3,0 M325.9,262.5h5.4l2.6-2.7v-2.6 M325.9,262.5c-2.2,0-7.7-0.4-7.7-2.7"
		/>
	<g>
		<ellipse class="st3" cx="256.1" cy="256.3" rx="13.8" ry="13.8"/>
	</g>
	<path class="st3" d="M322.1,152.1c2.2,0,3.9-1.8,3.9-3.9v-15.8 M322.1,128.5c-2.2,0-3.9,1.8-3.9,3.9v15.8c0,2.2,1.8,3.9,3.9,3.9
		l0,0 M322.1,128.5c2.2,0,3.9,1.8,3.9,3.9"/>
	<line class="st3" x1="242.2" y1="255.4" x2="219.9" y2="255.4"/>
	<g>
		<path class="st1" d="M284.4,256.3c0,15.8-12.8,28.5-28.6,28.5c-9,0-17-4.2-22.3-10.7"/>
	</g>
	<line class="st2" x1="144.7" y1="224" x2="144.7" y2="232.9"/>
	<path class="st3" d="M219.5,270.4c0,0,0-9.6,0-16.5c0-10.1,3.3-16.7,3.3-16.7s5.6-18.4,34-18.4c29,0,32.8,27.9,32.8,27.9h8.3"/>
	<path class="st3" d="M112.5,263.9c0,0,1-22.6-9.7-33.3c-10.8-10.8-18.6-13.1-31-13.1s-23.5,2.8-29.3,9.1
		c-5.9,6.3-13.5,13.2-13.5,36.1c4.2,1.2,6.4-4.8,6.4-4.8s0-11.7,11.2-25.4c9.5-11.6,40.6-16.9,54.7,7.1c3.1,5.3,4.2,11.9,3.9,18.3
		C105.4,262.7,112.5,263.9,112.5,263.9z"/>
	<line class="st2" x1="321.7" y1="152.8" x2="321.7" y2="155.8"/>
	<path class="st2" d="M364.6,268.6l-2.3,2.3 M362.3,271.3l2.3,2.3 M362.3,276.3l2.3-2.3 M364.6,279l-2.3-2.3 M364.6,279.5l-2.3,2.3
		 M364.6,284.5l-2.3-2.3 M359.5,268.6l2.3,2.3 M359.2,273.9l2.3-2.3 M361.9,276.3l-2.3-2.3 M361.9,276.8l-2.3,2.3 M359.5,279.5
		l2.3,2.3 M361.9,276.8l-2.3,2.3 M359.5,284.5l2.3-2.3 M365,268.6l2.3,2.3 M367.3,271.3l-2.3,2.3 M365,274l2.3,2.3 M365,279l2.3-2.3
		 M365,279.5l2.3,2.3 M367.7,270.9l2.3-2.3 M370,273.6l-2.3-2.3 M370,274l-2.3,2.3 M370,279l-2.3-2.3 M370,279.5l-2.3,2.3
		 M367.7,282.2l2.3,2.3 M367.3,282.2l-2.3,2.3 M372.7,270.9l-2.3-2.3 M370.4,273.6l2.3-2.3 M372.7,276.3l-2.3-2.3 M372.7,276.8
		l-2.3,2.3 M372.7,281.7l-2.3-2.3 M373.1,270.9l2.3-2.3 M375.5,273.6l-2.3-2.3 M375.5,274l-2.3,2.3 M375.5,279l-2.3-2.3
		 M373.1,281.7l2.3-2.3 M373.1,282.2l2.3,2.3 M372.7,282.2l-2.3,2.3 M375.9,268.6l2.1,2.3 M375.9,273.6l2.1-2.3 M375.9,274l2.1,2.3
		 M378,276.8l-2.1,2.3 M375.9,279.5l2.1,2.3 M375.9,273.6l2.1-2.3 M375.9,274l2.1,2.3 M378,276.8l-2.1,2.3 M375.9,279.5l2.1,2.3
		 M375.9,273.6l2.1-2.3 M375.9,274l2.1,2.3 M378,276.8l-2.1,2.3 M375.9,279.5l2.1,2.3 M375.9,273.6l2.1-2.3 M375.9,274l2.1,2.3
		 M378,276.8l-2.1,2.3 M375.9,279.5l2.1,2.3 M375.9,274l2.1,2.3 M378,276.8l-2.1,2.3 M375.9,279.5l2.1,2.3 M378,282.2l-2.1,2.3
		 M356.4,270.9l-2.3-2.3 M354.1,273.6l2.3-2.3 M354.1,274l2.3,2.3 M356.4,276.8l-2.3,2.3 M354.1,279.5l2.3,2.3 M342.8,268.6
		l-2.3,2.3 M340.5,271.3l2.3,2.3 M340.5,276.3l2.3-2.3 M340.5,276.8l2.3,2.3 M340.5,281.7l2.3-2.3 M342.8,284.5l-2.3-2.3
		 M340.1,270.9l-2.3-2.3 M340.1,271.3l-2.3,2.3 M337.8,274l2.3,2.3 M340.1,276.8l-2.3,2.3 M340.1,281.7l-2.3-2.3 M337.8,284.5
		l2.3-2.3 M343.2,268.6l2.3,2.3 M345.5,271.3l-2.3,2.3 M345.5,276.3l-2.3-2.3 M343.2,279l2.3-2.3 M343.2,279.5l2.3,2.3 M345.9,270.9
		l2.3-2.3 M348.3,273.6l-2.3-2.3 M345.9,276.3l2.3-2.3 M348.3,279l-2.3-2.3 M348.3,279.5l-2.3,2.3 M348.3,284.5l-2.3-2.3
		 M343.2,284.5l2.3-2.3 M348.7,268.6l2.3,2.3 M348.7,273.6l2.3-2.3 M348.7,274l2.3,2.3 M351,276.8l-2.3,2.3 M351,281.7l-2.3-2.3
		 M351.4,270.9l2.3-2.3 M353.7,273.6l-2.3-2.3 M353.7,274l-2.3,2.3 M351.4,276.8l2.3,2.3 M351.4,281.7l2.3-2.3 M351.4,282.2l2.3,2.3
		 M351,282.2l-2.3,2.3 M356.8,270.9l2.3-2.3 M359.1,273.6l-2.3-2.3 M359.1,274l-2.3,2.3 M359.1,279l-2.3-2.3 M356.8,281.7l2.3-2.3
		 M359.1,284.5l-2.3-2.3 M354.1,284.5l2.3-2.3 M334.7,270.9l-2.3-2.3 M334.7,271.3l-2.3,2.3 M334.7,276.3l-2.3-2.3 M332.4,279
		l2.3-2.3 M332.4,279.5l2.3,2.3 M321.5,273.6l2.3-2.3 M321.5,274l2.3,2.3 M323.8,276.8l-2.3,2.3 M323.8,281.7l-2.3-2.3 M326.5,268.6
		l-2.3,2.3 M324.2,271.3l2.3,2.3 M324.2,276.3l2.3-2.3 M326.5,279l-2.3-2.3 M326.5,279.5l-2.3,2.3 M324.2,282.2l2.3,2.3 M321.9,269
		l1.9,1.8 M321.9,284l1.9-1.8 M326.9,268.6l2.3,2.3 M329.2,271.3l-2.3,2.3 M326.9,274l2.3,2.3 M326.9,279l2.3-2.3 M329.2,281.7
		l-2.3-2.3 M329.6,270.9l2.3-2.3 M331.9,273.6l-2.3-2.3 M331.9,274l-2.3,2.3 M331.9,279l-2.3-2.3 M329.6,281.7l2.3-2.3 M331.9,284.5
		l-2.3-2.3 M329.2,282.2l-2.3,2.3 M335.1,270.9l2.3-2.3 M337.4,273.6l-2.3-2.3 M337.4,274l-2.3,2.3 M337.4,279l-2.3-2.3
		 M335.1,281.7l2.3-2.3 M337.4,284.5l-2.3-2.3 M332.4,284.5l2.3-2.3 M377.1,270.7c0-1.5-0.5-2.8-2.1-2.8h-51.6
		c-1.6,0-3.7,1.3-3.7,2.8v11c0,1.5,2,2.9,3.7,2.9H375c1.6,0,2.1-1.4,2.1-2.9V270.7z"/>
	<path class="st4" d="M257.3,246.2c0,0.8-0.7,1.5-1.5,1.5c-0.8,0-1.5-0.7-1.5-1.5s0.7-1.5,1.5-1.5
		C256.6,244.7,257.3,245.4,257.3,246.2z M255.8,265c-0.8,0-1.5,0.7-1.5,1.5c0,0.8,0.7,1.5,1.5,1.5c0.8,0,1.5-0.7,1.5-1.5
		C257.3,265.7,256.6,265,255.8,265z M266,257.9c-0.8,0-1.5-0.7-1.5-1.5s0.7-1.5,1.5-1.5c0.8,0,1.5,0.7,1.5,1.5
		S266.8,257.9,266,257.9z M247.2,256.4c0-0.8-0.7-1.5-1.5-1.5c-0.8,0-1.5,0.7-1.5,1.5s0.7,1.5,1.5,1.5
		C246.5,257.9,247.2,257.2,247.2,256.4z M264,250.3c-0.6,0.6-1.5,0.6-2.1,0c-0.6-0.6-0.6-1.5,0-2.1c0.6-0.6,1.5-0.6,2.1,0
		C264.6,248.7,264.6,249.7,264,250.3z M249.7,262.5c-0.6-0.6-1.5-0.6-2.1,0c-0.6,0.6-0.6,1.5,0,2.1c0.6,0.6,1.5,0.6,2.1,0
		C250.3,264,250.3,263.1,249.7,262.5z M261.9,264.6c-0.6-0.6-0.6-1.5,0-2.1c0.6-0.6,1.5-0.6,2.1,0c0.6,0.6,0.6,1.5,0,2.1
		C263.5,265.2,262.5,265.2,261.9,264.6z M249.7,250.3c0.6-0.6,0.6-1.5,0-2.1c-0.6-0.6-1.5-0.6-2.1,0c-0.6,0.6-0.6,1.5,0,2.1
		C248.2,250.9,249.1,250.9,249.7,250.3z"/>
	<g>
		<g>
			<polyline class="st5" points="230.6,270.1 230.6,264.5 223.1,264.5 223.1,270.1 			"/>
			<line class="st5" x1="229.1" y1="264.1" x2="229.1" y2="257.1"/>
			<line class="st5" x1="224.6" y1="257.1" x2="224.6" y2="264.1"/>
			<path class="st5" d="M230.5,256.6c0,0.2-0.1,0.4-0.2,0.4h-6.6c-0.1,0-0.2-0.2-0.2-0.4l0,0c0-0.2,0.1-0.4,0.2-0.4h6.6
				C230.4,256.2,230.5,256.4,230.5,256.6L230.5,256.6z"/>
		</g>
		<path class="st6" d="M220.8,277.3v-2.2c0-2.1,0.7-4.3,1.2-4.3h9.9c0.6,0,0.7,2.1,0.7,4.3v2.2"/>
		<path class="st6" d="M219.8,281.3v-2.8c0-0.4,1.1-0.6,1.7-0.6h11.4c0.6,0,0.8,0.2,0.8,0.6v2.8"/>
		<path class="st6" d="M218.8,281.8h4v3h-4V281.8z"/>
		<path class="st6" d="M229.7,281.8h4v3h-4V281.8z"/>
		<line class="st2" x1="223.3" y1="281.8" x2="229.2" y2="281.8"/>
		<line class="st2" x1="229.2" y1="284.7" x2="223.3" y2="284.7"/>
		<path class="st2" d="M233,270.4c0,0.2-0.1,0.5-0.2,0.5h-11.6c-0.1,0-0.2-0.3-0.2-0.5l0,0c0-0.2,0.1-0.5,0.2-0.5h11.6
			C232.8,269.9,233,270.2,233,270.4L233,270.4z"/>
		<polygon class="st6" points="234.7,284.7 218.8,284.7 218.8,284.7 234.7,284.7 		"/>
	</g>
	<path class="st2" d="M438.7,178.1l-7.7-4.8l4.1-6.5l9.2,5.7 M434,168.1c-3.7-2.2-8.6-8.1-10-12.2l-5.9-18.1
		c0.1-0.1,0.1-0.3,0.1-0.4l0.3-3.8c0-0.6-0.4-1.2-1-1.2c-0.5,0-1,0.3-1.2,0.9l-0.7-3.3c-0.1-0.6-0.7-1-1.3-0.9
		c-0.5,0.1-0.8,0.5-0.9,0.9c0,0.1,0,0.1,0,0.2c-0.3-0.4-0.8-0.6-1.2-0.5c-0.5,0.1-0.8,0.5-0.8,0.9c0,0.1,0,0.3,0,0.4l0.9,3.4
		c0,0,0,0,0,0l-1.2-2.8c-0.2-0.6-0.8-1-1.4-0.8c-0.5,0.1-0.5,0.9-0.6,1.4c0,0.1,0.5,1.6,0.6,1.8l1,2.2c0,0,0.8,0.6,1,1.1l6.6,20.3
		c1.8,5.5,8.3,11.5,13.2,14.5 M462.3,177.2l8.8-5.6l-4.1-6.5l-8.9,5.6 M468.6,284.9h15.5c1,0,1.7-0.8,1.7-1.7l0,0
		c0-0.8-0.5-1.5-1.3-1.7l-7.9-2.2h-9.2v4.4C467.5,284.4,468,284.9,468.6,284.9z M438.8,175.9l0,33.2h23.6v-34.3 M468.6,284.9h15.5
		c1,0,1.7-0.8,1.7-1.7l0,0c0-0.8-0.5-1.5-1.3-1.7l-7.9-2.2h-9.2v4.4C467.5,284.4,468,284.9,468.6,284.9z M447,284.9
		c0.6,0,1.1-0.5,1.1-1.1v-4.4H439l-7.9,2.2c-0.8,0.2-1.3,0.9-1.3,1.7l0,0c0,1,0.8,1.7,1.7,1.7 M448.1,283.7v-4.4H439l-7.9,2.2
		c-0.8,0.2-1.3,0.9-1.3,1.7l0,0c0,1,0.8,1.7,1.7,1.7H447C447.6,284.9,448.1,284.4,448.1,283.7z M462,153.8v-5c0-2.4-0.7-4.6-2-6.4
		 M450.8,137.6L450.8,137.6c-6.2,0-11.2,5-11.2,11.2v3.9 M438.7,206v3.1h23.6l0-33.9 M459.4,157.1c1.3,0,2.3-1,2.3-2.3
		c0-1.3-1-2.3-2.3-2.3 M441,152.6c-1.3,0-2.3,1-2.3,2.3c0,1.3,1,2.3,2.3,2.3 M446,169.3V167 M452.1,172.6h-2.4 M455.4,169.3v-1v-2.7
		 M470.8,170.8l2.8-1.6c4.9-3,8.6-7.7,10.4-13.1l5.7-17.5l0,0c0.2-0.4,1-2.1,1.2-2.6l0.1-0.3c0,0,0,0,0-0.1c0-0.1,0.1-0.2,0.1-0.2
		l0,0l1.6-4.7c0-0.1,0-0.3,0-0.4c-0.1-0.4-0.4-0.8-0.8-0.9c-0.6-0.2-1.2,0.2-1.4,0.8l-0.4,1.5c0,0,0,0,0,0l0.6-2.1
		c0-0.1,0-0.3,0-0.4c-0.1-0.4-0.4-0.8-0.8-0.9c-0.5-0.1-1,0.1-1.2,0.5c0-0.1,0-0.1,0-0.2c-0.1-0.4-0.4-0.8-0.9-0.9
		c-0.6-0.1-1.2,0.3-1.3,0.9l-0.7,3.3c-0.2-0.6-0.7-1-1.2-0.9c-0.6,0-1.1,0.6-1,1.2l0.3,3.8c0,0.3,0.1,0.5,0.3,0.7l-5.8,17.9
		c-1.3,4.1-4.1,7.6-7.8,9.9l-2.8,1.7 M459.1,152.8v-2.2c0-2.6-2.1-4.7-4.7-4.7l-8.8,0c-2.6,0-4.7,2.1-4.7,4.7v1.1v6.7
		c0,5,4.1,9.1,9.1,9.1l0,0c5,0,9.1-4.1,9.1-9.1v0l0-6.3 M439.2,152.8 M448.2,154.2v3.1c0,0.8,0.6,1.4,1.4,1.4 M460.8,156.1
		 M452,176.3h-2.5l-1.5,19.9l2.8,2.1l2.8-2.1L452,176.3z M457,169.4c-0.6-0.1-1.2-0.2-1.7,0.1c-1.2,1.5-3.1,3-3.1,3l1.7,3.9l3.9-4.9
		C458.3,170.8,457.9,169.6,457,169.4C457,169.4,457,169.4,457,169.4 M448.5,174.5c0.4-1,0.8-1.9,0.8-1.9s-1.8-1.5-3.1-3
		c-0.5-0.3-1.2-0.2-1.8-0.1c-0.9,0.2-1.3,1.3-0.7,2l3.9,5C447.6,176.4,448,175.4,448.5,174.5z M448.9,160.6c-1.1,0-1.9,0.9-1.9,1.9
		s0.9,1.9,1.9,1.9c1.1,0,1.9-0.9,1.9-1.9S449.9,160.6,448.9,160.6z M446.2,151.7L446.2,151.7c0-0.5-0.4-0.9-0.9-0.9H443
		c-0.5,0-0.9,0.4-0.9,0.9l0,0c0,0.5,0.4,0.9,0.9,0.9h2.3C445.8,152.6,446.2,152.2,446.2,151.7z M454.4,151.7L454.4,151.7
		c0-0.5-0.4-0.9-0.9-0.9h-2.3c-0.5,0-0.9,0.4-0.9,0.9v0c0,0.5,0.4,0.9,0.9,0.9h2.3C454,152.6,454.4,152.2,454.4,151.7z M457.6,143.1
		L457.6,143.1c1.5,0,2.7-1.2,2.7-2.7v-1.3h-2.1 M453.9,143.5L453.9,143.5c2.2,0,4-1.8,4-4v-1.9h-6.5 M449.6,218.3h-2.5 M477.7,279.8
		l-15.4-66.2v-4.5h-23.6v5.1l-0.2,65h10.7v-61h3.2l14.9,64 M453.3,155v-0.4c0-0.5-0.4-0.9-0.9-0.9l0,0c-0.5,0-0.9,0.4-0.9,0.9v0.4
		c0,0.5,0.4,0.9,0.9,0.9l0,0C452.9,155.9,453.3,155.5,453.3,155z M445,155v-0.4c0-0.5-0.4-0.9-0.9-0.9h0c-0.5,0-0.9,0.4-0.9,0.9v0.4
		c0,0.5,0.4,0.9,0.9,0.9l0,0C444.6,155.9,445,155.5,445,155z M453,174.7l-0.8,1.9 M448.5,175l1,1.6"/>
</g>
</svg>
